{"title":"Carry On Jatta [2012].720p.DVDRip.x264.Punjabi.6Ch.by K@rtik [Ex","uid":7606188,"size":1582619737,"categoryP":"video","categoryS":"hd___movies","magnet":"?xt=urn:btih:235ea8889a65fd6d0d29ae927423d4b42f25163e&amp;dn=Carry+On+Jatta+%5B2012%5D.720p.DVDRip.x264.Punjabi.6Ch.by+K%40rtik+%5BEx&amp;tr=udp%3A%2F%2Ftracker.openbittorrent.com%3A80&amp;tr=udp%3A%2F%2Fopen.demonii.com%3A1337&amp;tr=udp%3A%2F%2Ftracker.coppersurfer.tk%3A6969&amp;tr=udp%3A%2F%2Fexodus.desync.com%3A6969","seeders":0,"leechers":4,"uploader":"TeamExD","files":4,"time":1346952689,"description":"Format                                   : Matroska\nFormat version                           : Version 2\nFile size                                : 1.46 GiB\nDuration                                 : 2h 17mn\nOverall bit rate                         : 1 522 Kbps\nMovie name                               : Carry On Jatta [2012].720p.DVDRip.x264.Punjabi.6Ch.by K@rtik [ExD Exclusive]\nFormat                                   : AVC\nFormat/Info                              : Advanced Video Codec\nFormat profile                           : &lt;a class=&quot;__cf_email__&quot; href=&quot;/cdn-cgi/l/email-protection&quot; data-cfemail=&quot;4b03222c230b0778657a&quot;&gt;[email&amp;#160;protected]&lt;/a&gt;&lt;script data-cfhash='f9e31' type=&quot;text/javascript&quot;&gt;\n/* &lt;![CDATA[ */!function(){try{var t=&quot;currentScript&quot;in document?document.currentScript:function(){for(var t=document.getElementsByTagName(&quot;script&quot;),e=t.length;e--;)if(t[e].getAttribute(&quot;data-cfhash&quot;))return t[e]}();if(t&amp;&amp;t.previousSibling){var e,r,n,i,c=t.previousSibling,a=c.getAttribute(&quot;data-cfemail&quot;);if(a){for(e=&quot;&quot;,r=parseInt(a.substr(0,2),16),n=2;a.length-n;n+=2)i=parseInt(a.substr(n,2),16)^r,e+=String.fromCharCode(i);e=document.createTextNode(e),c.parentNode.replaceChild(e,c)}t.parentNode.removeChild(t);}}catch(u){}}()/* ]]&gt; */&lt;/script&gt;\nFormat settings, CABAC                   : Yes\nFormat settings, ReFrames                : 4 frames\nMuxing mode                              : Header stripping\nCodec ID                                 : V_MPEG4/ISO/AVC\nDuration                                 : 2h 17mn\nBit rate                                 : 1 073 Kbps\nWidth                                    : 1 280 pixels\nHeight                                   : 544 pixels\nDisplay aspect ratio                     : 2.35:1\nFrame rate                               : 29.970 fps\nStream size                              : 1.00 GiB (69%)\nTitle                                    : K@rtik\nCodec ID                                 : A_AC3\nDuration                                 : 2h 17mn\nBit rate mode                            : Constant\nBit rate                                 : 448 Kbps\nChannel(s)                               : 6 channels\nChannel positions                        : Front: L C R, Side: L R, LFE\nSampling rate                            : 48.0 KHz\nBit depth                                : 16 bits\nCompression mode                         : Lossy\nStream size                              : 440 MiB &lt;a href=&quot;\nhttp://img210.imageshack.us/img210/5512/exdp.jpg&quot; rel=&quot;nofollow&quot; target=&quot;_NEW&quot;&gt;\nhttp://img210.imageshack.us/img210/5512/exdp.jpg&lt;/a&gt; &lt;a href=&quot;\nhttp://img268.imageshack.us/img268/6225/14184303.png&quot; rel=&quot;nofollow&quot; target=&quot;_NEW&quot;&gt;\nhttp://img268.imageshack.us/img268/6225/14184303.png&lt;/a&gt; &lt;a href=&quot;\nhttp://img27.imageshack.us/img27/729/90217189.png&quot; rel=&quot;nofollow&quot; target=&quot;_NEW&quot;&gt;\nhttp://img27.imageshack.us/img27/729/90217189.png&lt;/a&gt; &lt;a href=&quot;\nhttp://img805.imageshack.us/img805/6730/89885033.png&quot; rel=&quot;nofollow&quot; target=&quot;_NEW&quot;&gt;\nhttp://img805.imageshack.us/img805/6730/89885033.png&lt;/a&gt; &lt;a href=&quot;\nhttp://img845.imageshack.us/img845/7753/16158621.png&quot; rel=&quot;nofollow&quot; target=&quot;_NEW&quot;&gt;\nhttp://img845.imageshack.us/img845/7753/16158621.png&lt;/a&gt; &lt;a href=&quot;\nhttp://img811.imageshack.us/img811/7069/74767569.png&quot; rel=&quot;nofollow&quot; target=&quot;_NEW&quot;&gt;\nhttp://img811.imageshack.us/img811/7069/74767569.png&lt;/a&gt; &lt;a href=&quot;\nhttp://img94.imageshack.us/img94/5816/60487224.png&quot; rel=&quot;nofollow&quot; target=&quot;_NEW&quot;&gt;\nhttp://img94.imageshack.us/img94/5816/60487224.png&lt;/a&gt; &lt;a href=&quot;\nhttp://img401.imageshack.us/img401/9518/32076758.png&quot; rel=&quot;nofollow&quot; target=&quot;_NEW&quot;&gt;\nhttp://img401.imageshack.us/img401/9518/32076758.png&lt;/a&gt; &lt;a href=&quot;\nhttp://img692.imageshack.us/img692/3143/77815961.png&quot; rel=&quot;nofollow&quot; target=&quot;_NEW&quot;&gt;\nhttp://img692.imageshack.us/img692/3143/77815961.png&lt;/a&gt; &lt;a href=&quot;\nhttp://img853.imageshack.us/img853/1025/94148115.png&quot; rel=&quot;nofollow&quot; target=&quot;_NEW&quot;&gt;\nhttp://img853.imageshack.us/img853/1025/94148115.png&lt;/a&gt;\n","torrent":{"xt":"urn:btih:235ea8889a65fd6d0d29ae927423d4b42f25163e","amp;dn":"Carry+On+Jatta+%5B2012%5D.720p.DVDRip.x264.Punjabi.6Ch.by+K%40rtik+%5BEx","amp;tr":["udp%3A%2F%2Ftracker.openbittorrent.com%3A80","udp%3A%2F%2Fopen.demonii.com%3A1337","udp%3A%2F%2Ftracker.coppersurfer.tk%3A6969","udp%3A%2F%2Fexodus.desync.com%3A6969"],"infoHash":"235ea8889a65fd6d0d29ae927423d4b42f25163e","infoHashBuffer":{"type":"Buffer","data":[35,94,168,136,154,101,253,109,13,41,174,146,116,35,212,180,47,37,22,62]},"announce":[],"urlList":[]}}